<?xml version="1.0" standalone="no"?>
<!DOCTYPE svg PUBLIC "-//W3C//DTD SVG 20010904//EN"
 "http://www.w3.org/TR/2001/REC-SVG-20010904/DTD/svg10.dtd">
<svg version="1.0" xmlns="http://www.w3.org/2000/svg"
 width="512.000000pt" height="512.000000pt" viewBox="0 0 512.000000 512.000000"
 preserveAspectRatio="xMidYMid meet">

<g transform="translate(0.000000,512.000000) scale(0.100000,-0.100000)"
fill="#000000" stroke="none">
<path d="M2060 5114 c-430 -39 -826 -191 -1170 -448 -123 -91 -346 -315 -437
-436 -416 -559 -552 -1255 -377 -1925 222 -852 958 -1510 1830 -1639 121 -17
176 -9 237 38 52 39 86 99 93 163 17 136 -79 249 -226 268 -496 64 -966 361
-1243 785 -460 706 -356 1636 250 2221 143 138 264 224 441 313 875 441 1947
69 2374 -824 55 -116 112 -293 139 -431 24 -129 44 -174 91 -214 48 -41 90
-55 161 -55 79 0 138 28 184 89 65 84 65 164 2 415 -157 625 -595 1166 -1174
1451 -314 154 -595 223 -945 229 -102 2 -205 2 -230 0z"/>
<path d="M2160 4387 c-49 -16 -133 -102 -148 -153 -9 -30 -12 -201 -12 -650
l0 -608 -308 -311 c-259 -260 -310 -317 -320 -351 -27 -95 -8 -169 63 -240 76
-76 173 -94 266 -50 20 9 192 174 395 379 305 306 362 368 372 403 17 59 17
1370 0 1426 -17 59 -88 133 -145 152 -53 18 -112 19 -163 3z"/>
<path d="M4355 2785 c-82 -18 -158 -49 -219 -90 -28 -19 -425 -409 -882 -867
-670 -672 -833 -840 -841 -869 -6 -21 -30 -194 -54 -386 -51 -410 -50 -413 35
-499 85 -84 87 -84 494 -35 191 23 365 47 387 53 34 10 157 128 873 842 468
467 849 855 869 886 85 126 121 318 89 470 -72 342 -416 569 -751 495z m213
-492 c68 -51 88 -123 53 -195 -14 -30 -242 -264 -774 -796 l-754 -754 -122
-15 c-67 -9 -124 -13 -128 -9 -3 3 1 61 10 128 l17 123 752 752 c471 471 768
761 793 774 48 24 114 21 153 -8z"/>
</g>
</svg>
